HIERARCHY
ROOT Hips
{
    OFFSET 0.000000 0.000000 0.000000
    CHANNELS 6 Xposition Yposition Zposition Zrotation Xrotation Yrotation
    JOINT Spine
    {
        OFFSET -0.000000 7.979263 0.000000
        CHANNELS 3 Zrotation Xrotation Yrotation
        JOINT Spine1
        {
            OFFSET -0.000000 24.719021 0.000000
            CHANNELS 3 Zrotation Xrotation Yrotation
            JOINT Neck
            {
                OFFSET -0.000000 24.617504 2.237955
                CHANNELS 3 Zrotation Xrotation Yrotation
                JOINT Head
                {
                    OFFSET -0.000000 13.623132 -1.946162
                    CHANNELS 3 Zrotation Xrotation Yrotation
                    End Site
                    {
                        OFFSET -0.000000 24.327021 0.000000
                    }
                }
            }
            JOINT LeftShoulder
            {
                OFFSET 3.885773 23.018444 -0.302444
                CHANNELS 3 Zrotation Xrotation Yrotation
                JOINT LeftArm
                {
                    OFFSET 10.447750 0.000000 0.000000
                    CHANNELS 3 Zrotation Xrotation Yrotation
                    JOINT LeftForeArm
                    {
                        OFFSET 29.090096 0.000000 0.000000
                        CHANNELS 3 Zrotation Xrotation Yrotation
                        JOINT LeftHand
                        {
                            OFFSET 28.893339 0.000000 0.000000
                            CHANNELS 3 Zrotation Xrotation Yrotation
                            End Site
                            {
                                OFFSET 14.596213 0.000000 0.000000
                            }
                        }
                    }
                }
            }
            JOINT RightShoulder
            {
                OFFSET -3.864586 23.018444 -0.302444
                CHANNELS 3 Zrotation Xrotation Yrotation
                JOINT RightArm
                {
                    OFFSET -10.447750 0.000000 0.000000
                    CHANNELS 3 Zrotation Xrotation Yrotation
                    JOINT RightForeArm
                    {
                        OFFSET -29.090096 0.000000 0.000000
                        CHANNELS 3 Zrotation Xrotation Yrotation
                        JOINT RightHand
                        {
                            OFFSET -28.893339 0.000000 0.000000
                            CHANNELS 3 Zrotation Xrotation Yrotation
                            End Site
                            {
                                OFFSET -14.596213 0.000000 0.000000
                            }
                        }
                    }
                }
            }
        }
    }
    JOINT LeftUpLeg
    {
        OFFSET 9.730808 0.000000 0.000000
        CHANNELS 3 Zrotation Xrotation Yrotation
        JOINT LeftLeg
        {
            OFFSET -0.000000 -34.800129 0.000000
            CHANNELS 3 Zrotation Xrotation Yrotation
            JOINT LeftFoot
            {
                OFFSET -0.000000 -44.597416 0.000000
                CHANNELS 3 Zrotation Xrotation Yrotation
                JOINT LeftToeBase
                {
                    OFFSET -0.000000 -6.325025 14.596213
                    CHANNELS 3 Zrotation Xrotation Yrotation
                    End Site
                    {
                        OFFSET -0.000000 0.000000 3.892323
                    }
                }
            }
        }
    }
    JOINT RightUpLeg
    {
        OFFSET -9.730808 0.000000 0.000000
        CHANNELS 3 Zrotation Xrotation Yrotation
        JOINT RightLeg
        {
            OFFSET -0.000000 -34.800129 0.000000
            CHANNELS 3 Zrotation Xrotation Yrotation
            JOINT RightFoot
            {
                OFFSET -0.000000 -44.597416 0.000000
                CHANNELS 3 Zrotation Xrotation Yrotation
                JOINT RightToeBase
                {
                    OFFSET -0.000000 -6.325025 14.596213
                    CHANNELS 3 Zrotation Xrotation Yrotation
                    End Site
                    {
                        OFFSET -0.000000 0.000000 3.892323
                    }
                }
            }
        }
    }
}
MOTION
Frames:    5
Frame Time:    0.008333
57.364666    130.142517    29.043341    -6.356561    -4.439523    96.046082    5.535230    -13.967419    -1.710863    -1.605552    -2.446824    -2.423733    -1.665951    23.261166    9.520250    -0.901772    9.597901    9.747190    13.331335    1.283205    -8.088272    -16.748686    3.047115    9.597584    3.285376    -5.087005    4.875103    4.066111    -5.278689    -1.480766    -16.297974    1.342109    -2.905423    18.367624    6.625246    4.831888    -0.780166    -0.445647    -5.728200    -8.162261    -0.714258    3.216712    3.701492    -5.339357    -12.186960    0.316358    1.836924    16.138365    -5.991291    10.086018    -1.040985    0.000000    0.000000    0.000000    3.076356    -4.404758    -4.609158    0.669432    4.523480    -8.330678    -3.689290    0.867380    -0.414121    0.000000    0.000000    0.000000    
57.378624    130.140015    29.042816    -6.359180    -4.435843    96.044708    5.544357    -13.969827    -1.714924    -1.639294    -2.454427    -2.429846    -1.659498    23.345934    9.532508    -0.902974    9.489983    9.758021    13.345364    1.295534    -8.083303    -16.750452    2.985526    9.580893    3.278787    -5.058196    4.892993    4.076324    -5.250406    -1.484971    -16.248901    1.340431    -2.874866    18.349661    6.650208    4.827274    -0.749836    -0.450386    -5.728501    -8.266944    -0.719211    3.199840    3.697639    -5.346742    -12.183247    0.314834    1.856826    16.065025    -5.986719    10.066467    -0.991581    0.000000    0.000000    0.000000    3.070581    -4.403556    -4.605097    0.671288    4.531399    -8.319143    -3.574021    0.888695    -0.442803    0.000000    0.000000    0.000000    
57.393559    130.138474    29.045019    -6.360011    -4.440402    96.049133    5.575607    -13.978991    -1.729431    -1.695459    -2.441787    -2.449679    -1.653700    23.329311    9.552136    -0.892462    9.499302    9.779816    13.367341    1.285975    -8.012367    -16.752155    2.979143    9.534797    3.270875    -5.052355    4.901264    4.058500    -5.244532    -1.493195    -16.236935    1.298610    -2.838630    18.381277    6.710236    4.832149    -0.758455    -0.430258    -5.736783    -8.181050    -0.698005    3.210458    3.694389    -5.359667    -12.167428    0.323109    1.895143    16.099676    -5.969703    10.047415    -1.050449    0.000000    0.000000    0.000000    3.080033    -4.391499    -4.605777    0.670609    4.522708    -8.327773    -3.602780    0.897315    -0.443695    0.000000    0.000000    0.000000    
57.394188    130.132355    29.045279    -6.419107    -4.452105    96.054489    5.620717    -14.022002    -1.744104    -1.756146    -2.465630    -2.473700    -1.735320    23.361164    9.581192    -0.801219    9.439873    9.808825    13.353196    1.267839    -7.957057    -16.753990    3.077753    9.533110    3.277149    -5.108752    4.888016    4.035381    -5.299454    -1.463475    -16.231028    1.310715    -2.826134    18.405085    6.703027    4.891188    -0.773562    -0.382570    -5.731707    -8.153357    -0.652737    3.244387    3.697849    -5.446822    -12.175012    0.312305    1.943337    16.093979    -5.969614    10.004993    -1.043190    0.000000    0.000000    0.000000    3.085914    -4.458910    -4.629771    0.669083    4.534759    -8.338234    -3.621078    0.884758    -0.411617    0.000000    0.000000    0.000000    
57.402359    130.130142    29.043859    -6.445189    -4.445705    96.028435    5.647890    -14.029676    -1.739631    -1.799388    -2.497618    -2.474394    -1.779162    23.410023    9.612792    -0.757200    9.373490    9.839961    13.337027    1.276725    -7.925024    -16.729488    3.078287    9.535278    3.261289    -5.140275    4.859797    4.022226    -5.329208    -1.460327    -16.224882    1.314646    -2.803113    18.420265    6.723570    4.915717    -0.778617    -0.388108    -5.727645    -8.078495    -0.654964    3.226665    3.685618    -5.480712    -12.162158    0.313605    1.971964    16.077240    -5.957493    9.988525    -1.021067    0.000000    0.000000    0.000000    3.077574    -4.482929    -4.613575    0.668885    4.540559    -8.334541    -3.634542    0.883946    -0.398099    0.000000    0.000000    0.000000    
